<svg width="181" height="181" xmlns="http://www.w3.org/2000/svg" xmlns:xlink="http://www.w3.org/1999/xlink" xml:space="preserve" overflow="hidden"><g transform="translate(-280 -269)"><g><g><g><g><path d="M371 290.625 371 290.625C332.75 290.625 301.625 321.75 301.625 360 301.625 398.25 332.75 429.375 371 429.375 409.25 429.375 440.375 398.25 440.375 360 440.375 321.75 409.25 290.625 371 290.625ZM436.625 358.125 406.625 358.125C406.062 332.812 395 309.188 377 294.75 410 297.75 435.5 324.938 436.625 358.125ZM369.125 358.125 339.125 358.125C339.688 333 350.938 309.75 369.125 296.25L369.125 358.125ZM369.125 361.875 369.125 423.75C350.938 410.062 339.688 386.812 339.125 361.875L369.125 361.875ZM372.875 361.875 402.875 361.875C402.312 387 391.062 410.25 372.875 423.75L372.875 361.875ZM372.875 358.125 372.875 296.25C391.062 309.938 402.312 333.188 402.875 358.125L372.875 358.125ZM365 294.75C347 309.188 335.938 332.812 335.375 358.125L305.375 358.125C306.5 324.938 332 297.75 365 294.75ZM305.375 361.875 335.375 361.875C335.938 387.188 347 410.812 365 425.25 332 422.25 306.5 395.062 305.375 361.875ZM377 425.25C395 410.812 406.062 387.188 406.625 361.875L436.625 361.875C435.688 394.688 410.75 421.688 378.312 425.25 377.75 425.25 377 425.25 377 425.25Z" fill="#000000" fill-rule="nonzero" fill-opacity="1"/></g></g></g></g></g></svg>